<svg width="354" height="50" viewBox="0 0 354 50" fill="none" xmlns="http://www.w3.org/2000/svg">
<path fill-rule="evenodd" clip-rule="evenodd" d="M22.3051 25.7416C22.3051 28.5592 20.5489 31.5682 15.6236 31.5682H5.89252V19.8677H15.9953C20.3554 19.8677 22.3051 22.8165 22.3051 25.7416ZM13.8326 15.2953H5.89252V5.4832H15.5301C19.1382 5.4832 21.2097 7.26194 21.2097 10.3656C21.2097 13.3144 18.2427 15.2953 13.8326 15.2953ZM21.5444 17.0877C24.7069 15.5133 26.4327 12.8011 26.4327 9.34904C26.4327 4.00852 22.6007 0.818832 16.1822 0.818832H0.758545V36.2775L15.4801 36.3248H15.5888C20.225 36.3248 23.042 34.516 24.5917 32.9932C26.5175 31.0983 27.6238 28.4872 27.6238 25.8309C27.6238 21.9207 25.3742 18.7159 21.5444 17.0877Z" fill="white"/>
<path fill-rule="evenodd" clip-rule="evenodd" d="M36.7463 12.8427V10.4101H31.7537V36.2804H36.792V21.4654C36.792 17.0089 38.4961 15.2753 42.8715 15.2753H46.3122V10.4101H42.8258C39.9545 10.4101 37.8744 11.2575 36.7463 12.8427Z" fill="white"/>
<path fill-rule="evenodd" clip-rule="evenodd" d="M49.5341 36.2804H54.5724V10.4101H49.5341V36.2804Z" fill="white"/>
<path fill-rule="evenodd" clip-rule="evenodd" d="M98.4662 9.94771C95.1536 9.94771 92.5845 11.1027 90.8065 13.3869V0.266804H85.766V36.2804H90.8065V23.0226C90.8065 17.8563 93.5213 14.5182 97.7206 14.5182C100.698 14.5182 102.307 16.9766 102.307 19.2866V36.2804H107.345V18.8715C107.345 13.5332 103.776 9.94771 98.4662 9.94771Z" fill="white"/>
<path fill-rule="evenodd" clip-rule="evenodd" d="M139.686 21.279L139.154 21.2016C135.504 20.6918 132.922 20.1455 132.922 17.7194C132.922 14.7082 136.68 14.4738 137.832 14.4738C140.469 14.4738 143.305 15.4739 143.351 18.2808L143.355 18.7152H148.485L148.483 18.27C148.428 12.1272 142.714 9.94843 137.832 9.94843C131.703 9.94843 127.742 13.0714 127.742 17.9044C127.742 24.2149 133.907 25.1763 138.41 25.8775C138.762 25.9313 139.106 25.9851 139.436 26.0388C142.268 26.5077 143.907 27.1508 143.907 29.0607C143.907 32.0741 140.043 32.3085 138.856 32.3085C135.143 32.3085 132.696 30.6911 132.309 27.9853L132.257 27.6046H127.049L127.09 28.0864C127.575 33.4011 132.066 36.8339 138.532 36.8339C143.831 36.8339 149.18 34.2593 149.18 28.508C149.18 22.6556 143.694 21.8597 139.686 21.279Z" fill="white"/>
<path fill-rule="evenodd" clip-rule="evenodd" d="M153.096 36.2804H158.134V10.4101H153.096V36.2804Z" fill="white"/>
<path fill-rule="evenodd" clip-rule="evenodd" d="M181.544 23.2051C181.544 27.3196 179.597 32.1224 174.117 32.1224C168.777 32.1224 166.875 27.5885 166.875 23.3427C166.875 19.054 168.79 14.4727 174.163 14.4727C179.61 14.4727 181.544 19.1766 181.544 23.2051ZM181.638 13.4425C179.879 11.2035 177.051 9.94741 173.65 9.94741C165.469 9.94741 161.743 16.9161 161.743 23.3901C161.743 29.8641 165.455 36.8328 173.604 36.8328C178.127 36.8328 180.525 34.7444 181.775 32.8043V36.2801H186.676V0.264351H181.638V13.4425Z" fill="white"/>
<path fill-rule="evenodd" clip-rule="evenodd" d="M194.766 20.5965C195.351 16.6949 197.935 14.3806 201.761 14.3806C205.528 14.3806 208.105 16.8605 208.292 20.5965H194.766ZM213.389 22.4684C213.389 14.8609 208.879 9.94843 201.9 9.94843C196.259 9.94843 189.667 13.4564 189.667 23.3438C189.667 27.6089 190.958 31.132 193.397 33.5345C195.557 35.6617 198.561 36.8339 201.854 36.8339C206.351 36.8339 212.033 34.5647 213.241 28.1746L213.341 27.6519H208.44L208.362 27.9939C207.738 30.6653 205.375 32.2612 202.041 32.2612C197.666 32.2612 194.905 29.4823 194.59 24.7999H213.389V22.4684Z" fill="white"/>
<path fill-rule="evenodd" clip-rule="evenodd" d="M118.997 30.4857V14.9351H124.959V10.4098H118.997V2.56999H113.957V10.4098H109.112V14.9351H113.957V31.1288C113.957 33.97 116.293 36.28 119.162 36.28H125.511V31.7547H120.279C119.571 31.7547 118.997 31.1847 118.997 30.4857Z" fill="white"/>
<path fill-rule="evenodd" clip-rule="evenodd" d="M52.0526 0.264351C50.2507 0.264351 48.7836 1.71401 48.7836 3.49921C48.7836 5.28225 50.2507 6.73191 52.0526 6.73191C53.8545 6.73191 55.3217 5.28225 55.3217 3.49921C55.3217 1.71401 53.8545 0.264351 52.0526 0.264351Z" fill="white"/>
<path fill-rule="evenodd" clip-rule="evenodd" d="M155.615 0.264351C153.813 0.264351 152.345 1.71401 152.345 3.49921C152.345 5.28225 153.813 6.73191 155.615 6.73191C157.416 6.73191 158.884 5.28225 158.884 3.49921C158.884 1.71401 157.416 0.264351 155.615 0.264351Z" fill="white"/>
<path fill-rule="evenodd" clip-rule="evenodd" d="M63.8831 20.2522C63.8831 17.3034 66.4175 14.9074 69.5322 14.9074C69.5996 14.9074 69.6691 14.9074 69.7365 14.9117L69.7408 14.9375H70.1364C73.0121 15.23 75.1791 17.5099 75.1791 20.2522C75.1791 23.1989 72.6447 25.597 69.5322 25.597C66.4175 25.597 63.8831 23.1989 63.8831 20.2522ZM74.7748 38.0333C76.0898 38.143 77.1375 38.5839 77.7243 39.2722C78.1156 39.7324 78.2938 40.3003 78.2416 40.9133C78.0178 43.4835 73.2577 45.2235 69.1496 45.0665C65.8545 44.9375 61.929 44.0277 61.929 40.4229C61.929 39.227 62.831 38.0591 64.3482 37.2719C64.9764 37.4999 65.6328 37.659 66.2979 37.7429C67.4564 37.8935 68.5562 37.887 69.8278 37.8784C71.1862 37.8698 72.7251 37.8612 74.7748 38.0333ZM77.0919 33.7034C74.764 33.327 71.9166 33.2517 69.6278 33.1915C68.2281 33.1549 67.0195 33.1227 66.3066 33.0302C65.0155 32.8646 64.3048 32.1204 64.3048 30.9331C64.3048 30.3653 64.8221 29.7631 65.6372 29.3652C66.8761 29.8534 68.1846 30.1007 69.5322 30.1007C75.203 30.1007 79.8175 25.6808 79.8175 20.2521C79.8175 17.656 78.7372 15.1654 76.8332 13.3242C79.8414 11.5713 81.5542 8.44614 81.5542 4.65422V4.2133H76.4224V4.65422C76.4224 6.46308 75.9877 9.66137 73.1142 11.0228C71.9644 10.612 70.7603 10.4034 69.5322 10.4034C63.8592 10.4034 59.2447 14.8212 59.2447 20.2521C59.2447 22.8911 60.3576 25.4162 62.3181 27.2638C60.7336 28.3607 59.7033 30.0814 59.7033 31.7031C59.7033 32.9527 60.2728 34.2368 61.2835 35.3036C58.4709 36.7167 57.045 38.6933 57.045 41.1797C57.045 47.1289 63.3114 49.4927 69.1757 49.7207C69.4344 49.7314 69.693 49.7357 69.9517 49.7357C74.2162 49.7357 78.296 48.3721 80.7413 46.1008C82.3845 44.5759 83.2409 42.7433 83.2909 40.6506C83.3865 36.5855 80.1435 34.2002 77.0919 33.7034Z" fill="white"/>
<path d="M253.523 36.172V0.970612H250.715V17.1633H230.777V0.970612H227.969V36.172H230.777V19.6978H250.715V36.172H253.523Z" fill="white"/>
<path d="M268.812 13.2207C271.059 13.2207 272.931 13.9717 274.428 15.4736C275.926 16.9755 276.675 19.1345 276.722 21.8568H260.153C260.341 19.1345 261.23 16.9755 262.915 15.4736C264.553 13.9717 266.519 13.2207 268.812 13.2207ZM279.436 24.2974V22.8424C279.436 18.8999 278.454 15.896 276.488 13.8309C274.522 11.7657 272.041 10.7331 268.952 10.7331C265.676 10.7331 262.962 11.8596 260.715 14.1125C258.469 16.3654 257.392 19.557 257.392 23.7811C257.392 28.0053 258.469 31.2438 260.668 33.4498C262.821 35.6557 265.536 36.7352 268.718 36.7352C271.199 36.7352 273.446 36.0782 275.411 34.717C277.377 33.4028 278.688 31.3377 279.249 28.6154H276.769C276.394 30.4929 275.411 31.9009 273.914 32.8396C272.369 33.7783 270.684 34.2477 268.906 34.2477C266.425 34.2477 264.319 33.4028 262.634 31.7132C260.902 30.0235 260.06 27.5359 260.06 24.2974H279.436Z" fill="white"/>
<path d="M300.026 25.1422C300.026 27.9584 299.09 30.1643 297.265 31.7601C295.439 33.3559 293.38 34.1538 291.087 34.1538C289.495 34.1538 288.185 33.7783 287.108 32.9335C286.032 32.0887 285.517 30.8683 285.517 29.2725C285.517 26.4564 287.483 24.8137 291.414 24.2974L295.439 23.7811C297.686 23.4995 299.23 23.0302 300.026 22.4669V25.1422ZM293.801 10.7331C290.993 10.7331 288.746 11.3902 287.015 12.6105C285.236 13.8778 284.16 15.6613 283.785 18.0081H286.453C286.687 16.5062 287.436 15.2859 288.653 14.3941C289.87 13.5023 291.508 13.033 293.52 13.033C295.486 13.033 297.124 13.5023 298.341 14.3471C299.558 15.2389 300.166 16.4592 300.166 17.9612C300.166 19.1345 299.839 19.9324 299.184 20.4018C298.528 20.8711 297.592 21.1997 296.469 21.3405L290.197 22.2323C287.904 22.5608 286.079 23.3118 284.768 24.4852C283.411 25.7055 282.756 27.3482 282.756 29.4133C282.756 31.7132 283.504 33.4967 285.049 34.8109C286.547 36.1251 288.466 36.7352 290.712 36.7352C292.631 36.7352 294.456 36.2659 296.188 35.2803C297.92 34.2946 299.23 32.9804 300.166 31.2908V36.172H302.834V18.806C302.834 16.1307 302.039 14.1125 300.447 12.7514C298.856 11.4372 296.656 10.7331 293.801 10.7331Z" fill="white"/>
<path d="M311.69 36.172V0.407391H309.022V36.172H311.69Z" fill="white"/>
<path d="M329.652 36.172V33.7314H326.516C325.159 33.7314 324.223 33.4498 323.708 32.8866C323.193 32.3233 322.959 31.4316 322.959 30.1174V13.6431H329.137V11.2025H322.959V3.73979H320.291V11.2025H315.237V13.6431H320.291V30.0235C320.291 32.4172 320.759 34.0599 321.789 34.9048C322.772 35.7496 324.129 36.172 325.861 36.172H329.652Z" fill="white"/>
<path d="M345.098 10.7331C340.932 10.7331 337.984 12.4697 336.252 15.896V0.407391H333.584V36.172H336.252V22.7486C336.252 19.7916 337.094 17.4449 338.779 15.7552C340.464 14.0655 342.477 13.1738 344.77 13.1738C346.455 13.1738 347.859 13.737 348.936 14.7696C350.012 15.8021 350.574 17.351 350.574 19.3223V36.172H353.242V18.8999C353.242 16.2246 352.493 14.2063 351.042 12.7983C349.544 11.4372 347.578 10.7331 345.098 10.7331Z" fill="white"/>
</svg>
