<svg width="354" height="50" viewBox="0 0 354 50" fill="none" xmlns="http://www.w3.org/2000/svg">
<path fill-rule="evenodd" clip-rule="evenodd" d="M22.3051 25.7415C22.3051 28.5591 20.5488 31.5681 15.6235 31.5681H5.89246V19.8675H15.9952C20.3554 19.8675 22.3051 22.8163 22.3051 25.7415ZM13.8325 15.2952H5.89246V5.48305H15.5301C19.1382 5.48305 21.2096 7.26179 21.2096 10.3654C21.2096 13.3142 18.2427 15.2952 13.8325 15.2952ZM21.5443 17.0877C24.7069 15.5133 26.4327 12.8011 26.4327 9.34901C26.4327 4.00849 22.6007 0.818798 16.1821 0.818798H0.758484V36.2775L15.4801 36.3248H15.5887C20.225 36.3248 23.0419 34.5159 24.5917 32.9931C26.5174 31.0982 27.6238 28.4871 27.6238 25.8309C27.6238 21.9206 25.3741 18.7159 21.5443 17.0877Z" fill="#343D55"/>
<path fill-rule="evenodd" clip-rule="evenodd" d="M36.7463 12.8426V10.41H31.7536V36.2803H36.7919V21.4653C36.7919 17.0088 38.496 15.2752 42.8714 15.2752H46.3122V10.41H42.8257C39.9545 10.41 37.8744 11.2575 36.7463 12.8426Z" fill="#343D55"/>
<path fill-rule="evenodd" clip-rule="evenodd" d="M49.534 36.2803H54.5723V10.41H49.534V36.2803Z" fill="#343D55"/>
<path fill-rule="evenodd" clip-rule="evenodd" d="M98.4661 9.94777C95.1536 9.94777 92.5845 11.1028 90.8065 13.387V0.266861H85.766V36.2804H90.8065V23.0227C90.8065 17.8564 93.5213 14.5183 97.7206 14.5183C100.698 14.5183 102.307 16.9767 102.307 19.2867V36.2804H107.345V18.8716C107.345 13.5332 103.776 9.94777 98.4661 9.94777Z" fill="#343D55"/>
<path fill-rule="evenodd" clip-rule="evenodd" d="M139.686 21.279L139.154 21.2016C135.504 20.6918 132.922 20.1455 132.922 17.7194C132.922 14.7082 136.68 14.4738 137.832 14.4738C140.469 14.4738 143.305 15.4739 143.351 18.2807L143.355 18.7152H148.485L148.483 18.27C148.428 12.1272 142.714 9.94841 137.832 9.94841C131.703 9.94841 127.742 13.0714 127.742 17.9043C127.742 24.2149 133.907 25.1763 138.41 25.8775C138.762 25.9313 139.106 25.985 139.436 26.0388C142.268 26.5077 143.907 27.1508 143.907 29.0607C143.907 32.074 140.043 32.3085 138.856 32.3085C135.143 32.3085 132.696 30.6911 132.309 27.9853L132.257 27.6046H127.049L127.09 28.0864C127.575 33.4011 132.066 36.8338 138.532 36.8338C143.831 36.8338 149.18 34.2593 149.18 28.508C149.18 22.6555 143.694 21.8597 139.686 21.279Z" fill="#343D55"/>
<path fill-rule="evenodd" clip-rule="evenodd" d="M153.096 36.2803H158.134V10.41H153.096V36.2803Z" fill="#343D55"/>
<path fill-rule="evenodd" clip-rule="evenodd" d="M181.544 23.205C181.544 27.3196 179.597 32.1224 174.117 32.1224C168.777 32.1224 166.875 27.5884 166.875 23.3427C166.875 19.0539 168.79 14.4726 174.163 14.4726C179.61 14.4726 181.544 19.1765 181.544 23.205ZM181.638 13.4425C179.879 11.2035 177.051 9.94741 173.65 9.94741C165.468 9.94741 161.743 16.9161 161.743 23.3901C161.743 29.8641 165.455 36.8328 173.604 36.8328C178.127 36.8328 180.525 34.7444 181.775 32.8043V36.2801H186.676V0.264351H181.638V13.4425Z" fill="#343D55"/>
<path fill-rule="evenodd" clip-rule="evenodd" d="M194.766 20.5965C195.351 16.6949 197.935 14.3806 201.761 14.3806C205.527 14.3806 208.105 16.8605 208.292 20.5965H194.766ZM213.389 22.4684C213.389 14.8609 208.879 9.94841 201.9 9.94841C196.259 9.94841 189.667 13.4564 189.667 23.3438C189.667 27.6089 190.958 31.132 193.397 33.5345C195.557 35.6616 198.561 36.8338 201.854 36.8338C206.351 36.8338 212.033 34.5647 213.241 28.1746L213.341 27.6519H208.44L208.362 27.9939C207.738 30.6652 205.375 32.2612 202.041 32.2612C197.666 32.2612 194.905 29.4823 194.59 24.7999H213.389V22.4684Z" fill="#343D55"/>
<path fill-rule="evenodd" clip-rule="evenodd" d="M118.997 30.4856V14.9351H124.959V10.4097H118.997V2.56996H113.956V10.4097H109.112V14.9351H113.956V31.1287C113.956 33.97 116.293 36.28 119.162 36.28H125.511V31.7546H120.279C119.571 31.7546 118.997 31.1847 118.997 30.4856Z" fill="#343D55"/>
<path fill-rule="evenodd" clip-rule="evenodd" d="M52.0525 0.264351C50.2506 0.264351 48.7835 1.71401 48.7835 3.49921C48.7835 5.28225 50.2506 6.73191 52.0525 6.73191C53.8544 6.73191 55.3216 5.28225 55.3216 3.49921C55.3216 1.71401 53.8544 0.264351 52.0525 0.264351Z" fill="#343D55"/>
<path fill-rule="evenodd" clip-rule="evenodd" d="M155.614 0.264351C153.813 0.264351 152.345 1.71401 152.345 3.49921C152.345 5.28225 153.813 6.73191 155.614 6.73191C157.416 6.73191 158.883 5.28225 158.883 3.49921C158.883 1.71401 157.416 0.264351 155.614 0.264351Z" fill="#343D55"/>
<path fill-rule="evenodd" clip-rule="evenodd" d="M63.883 20.2523C63.883 17.3035 66.4174 14.9074 69.5321 14.9074C69.5995 14.9074 69.669 14.9074 69.7364 14.9117L69.7408 14.9375H70.1364C73.012 15.2301 75.179 17.5099 75.179 20.2523C75.179 23.1989 72.6447 25.5971 69.5321 25.5971C66.4174 25.5971 63.883 23.1989 63.883 20.2523ZM74.7747 38.0333C76.0897 38.143 77.1374 38.5839 77.7243 39.2722C78.1155 39.7325 78.2937 40.3003 78.2416 40.9133C78.0177 43.4835 73.2576 45.2236 69.1495 45.0666C65.8544 44.9375 61.9289 44.0277 61.9289 40.4229C61.9289 39.227 62.831 38.0591 64.3481 37.2719C64.9763 37.4999 65.6327 37.6591 66.2978 37.743C67.4563 37.8935 68.5561 37.8871 69.8277 37.8785C71.1862 37.8699 72.7251 37.8613 74.7747 38.0333ZM77.0918 33.7033C74.7639 33.3269 71.9165 33.2516 69.6278 33.1914C68.228 33.1549 67.0195 33.1226 66.3065 33.0301C65.0154 32.8645 64.3047 32.1203 64.3047 30.9331C64.3047 30.3652 64.822 29.763 65.6371 29.3651C66.876 29.8533 68.1845 30.1007 69.5321 30.1007C75.203 30.1007 79.8174 25.6807 79.8174 20.252C79.8174 17.656 78.7372 15.1653 76.8331 13.3242C79.8414 11.5712 81.5541 8.44608 81.5541 4.65416V4.21324H76.4223V4.65416C76.4223 6.46301 75.9876 9.6613 73.1142 11.0228C71.9643 10.612 70.7602 10.4033 69.5321 10.4033C63.8591 10.4033 59.2446 14.8212 59.2446 20.252C59.2446 22.8911 60.3575 25.4162 62.318 27.2637C60.7335 28.3607 59.7032 30.0813 59.7032 31.7031C59.7032 32.9527 60.2727 34.2367 61.2834 35.3035C58.4708 36.7166 57.045 38.6933 57.045 41.1796C57.045 47.1288 63.3114 49.4926 69.1757 49.7206C69.4343 49.7313 69.693 49.7356 69.9516 49.7356C74.2162 49.7356 78.2959 48.372 80.7412 46.1007C82.3844 44.5758 83.2408 42.7433 83.2908 40.6505C83.3864 36.5854 80.1435 34.2002 77.0918 33.7033Z" fill="#343D55"/>
<path d="M253.523 36.172V0.970573H250.715V17.1632H230.777V0.970573H227.969V36.172H230.777V19.6977H250.715V36.172H253.523Z" fill="#343D55"/>
<path d="M268.812 13.2207C271.059 13.2207 272.931 13.9716 274.428 15.4736C275.926 16.9755 276.675 19.1345 276.722 21.8567H260.153C260.341 19.1345 261.23 16.9755 262.915 15.4736C264.553 13.9716 266.519 13.2207 268.812 13.2207ZM279.436 24.2974V22.8424C279.436 18.8998 278.454 15.896 276.488 13.8308C274.522 11.7657 272.041 10.7331 268.952 10.7331C265.676 10.7331 262.962 11.8595 260.715 14.1124C258.468 16.3653 257.392 19.5569 257.392 23.7811C257.392 28.0053 258.468 31.2438 260.668 33.4497C262.821 35.6557 265.536 36.7352 268.718 36.7352C271.199 36.7352 273.446 36.0781 275.411 34.717C277.377 33.4028 278.688 31.3377 279.249 28.6154H276.769C276.394 30.4928 275.411 31.9009 273.914 32.8396C272.369 33.7783 270.684 34.2476 268.906 34.2476C266.425 34.2476 264.319 33.4028 262.634 31.7131C260.902 30.0235 260.06 27.5359 260.06 24.2974H279.436Z" fill="#343D55"/>
<path d="M300.026 25.1422C300.026 27.9583 299.09 30.1643 297.265 31.7601C295.439 33.3559 293.38 34.1538 291.087 34.1538C289.495 34.1538 288.185 33.7783 287.108 32.9335C286.032 32.0886 285.517 30.8683 285.517 29.2725C285.517 26.4564 287.483 24.8137 291.414 24.2974L295.439 23.7811C297.686 23.4995 299.23 23.0301 300.026 22.4669V25.1422ZM293.801 10.7331C290.993 10.7331 288.746 11.3902 287.015 12.6105C285.236 13.8778 284.16 15.6613 283.785 18.0081H286.453C286.687 16.5061 287.436 15.2858 288.653 14.394C289.87 13.5023 291.508 13.0329 293.52 13.0329C295.486 13.0329 297.124 13.5023 298.341 14.3471C299.558 15.2389 300.166 16.4592 300.166 17.9611C300.166 19.1345 299.839 19.9324 299.184 20.4018C298.528 20.8711 297.592 21.1996 296.469 21.3405L290.197 22.2322C287.904 22.5608 286.079 23.3117 284.768 24.4851C283.411 25.7054 282.756 27.3482 282.756 29.4133C282.756 31.7131 283.504 33.4967 285.049 34.8109C286.547 36.125 288.466 36.7352 290.712 36.7352C292.631 36.7352 294.456 36.2659 296.188 35.2802C297.92 34.2946 299.23 32.9804 300.166 31.2907V36.172H302.834V18.806C302.834 16.1306 302.039 14.1124 300.447 12.7513C298.856 11.4371 296.656 10.7331 293.801 10.7331Z" fill="#343D55"/>
<path d="M311.69 36.172V0.407352H309.022V36.172H311.69Z" fill="#343D55"/>
<path d="M329.652 36.172V33.7314H326.516C325.159 33.7314 324.223 33.4497 323.708 32.8865C323.193 32.3233 322.959 31.4315 322.959 30.1173V13.6431H329.137V11.2025H322.959V3.73975H320.291V11.2025H315.237V13.6431H320.291V30.0235C320.291 32.4172 320.759 34.0599 321.789 34.9047C322.772 35.7496 324.129 36.172 325.861 36.172H329.652Z" fill="#343D55"/>
<path d="M345.098 10.7331C340.932 10.7331 337.984 12.4697 336.252 15.896V0.407352H333.584V36.172H336.252V22.7485C336.252 19.7916 337.094 17.4448 338.779 15.7552C340.464 14.0655 342.477 13.1737 344.77 13.1737C346.455 13.1737 347.859 13.737 348.936 14.7695C350.012 15.8021 350.574 17.351 350.574 19.3222V36.172H353.241V18.8998C353.241 16.2245 352.493 14.2063 351.042 12.7982C349.544 11.4371 347.578 10.7331 345.098 10.7331Z" fill="#343D55"/>
</svg>
