<svg width="26" height="37" viewBox="0 0 26 37" fill="none" xmlns="http://www.w3.org/2000/svg">
<path fill-rule="evenodd" clip-rule="evenodd" d="M18.9262 16.9458C19.0197 16.8568 19.1558 16.8322 19.2736 16.883C23.237 18.5944 25.5786 23.2489 24.798 27.6235L24.798 27.6235C23.9643 32.2905 20.1453 35.8127 15.6789 35.9919C13.5669 36.0768 11.4476 35.4781 9.74565 34.4467C8.0476 33.4176 6.7318 31.936 6.28447 30.2312C6.25361 30.1136 6.28862 29.9882 6.3756 29.9049C6.46257 29.8215 6.58743 29.7937 6.70057 29.8324C8.62948 30.493 10.4507 30.6759 12.1381 30.3357C13.823 29.9961 15.3956 29.1309 16.8246 27.6603L16.8246 27.6603C18.2507 26.1928 19.0802 24.5827 19.3938 22.859C19.7079 21.1323 19.5082 19.2698 18.841 17.2951C18.7993 17.1717 18.8327 17.0349 18.9262 16.9458ZM19.6829 17.8158C20.1935 19.6091 20.3293 21.3396 20.031 22.9796C19.6915 24.8458 18.7937 26.573 17.2848 28.1257C15.7737 29.6808 14.0876 30.6166 12.2638 30.9842C10.6293 31.3137 8.90129 31.1835 7.11063 30.6556C7.62542 31.908 8.68962 33.0378 10.0766 33.8783C11.6764 34.8478 13.6726 35.4109 15.6535 35.3314C19.7966 35.1651 23.3775 31.8878 24.1604 27.505C24.8447 23.6706 22.9506 19.6109 19.6829 17.8158Z" fill="#343D55" stroke="#343D55" stroke-width="0.05" stroke-linecap="round" stroke-linejoin="round"/>
<path fill-rule="evenodd" clip-rule="evenodd" d="M1.20136 1.03536C1.31052 0.979245 1.44134 0.990577 1.53967 1.06467L5.58264 4.11116C5.59439 4.12002 5.60554 4.12967 5.61602 4.14006C6.22381 4.743 6.41569 5.3903 6.4372 6.20128L6.4372 6.20131C6.49403 8.35228 6.45841 11.028 6.42061 13.8683C6.40196 15.2692 6.38278 16.7102 6.37389 18.148C6.34691 22.5148 6.41472 26.8558 6.87194 30.0308C6.88849 30.1458 6.84468 30.2611 6.75654 30.3347C6.6684 30.4083 6.54887 30.4292 6.44171 30.3899C6.23357 30.3135 6.0318 30.2202 5.83833 30.1108C5.83302 30.1078 5.8278 30.1047 5.82266 30.1014C2.78907 28.1514 1.08464 25.334 1.03593 21.6523L1.35991 21.6479L1.03593 21.6523C0.983197 17.6603 1.00032 10.9822 1.01382 5.71625C1.01802 4.07593 1.02187 2.57262 1.02316 1.3302C1.02328 1.20549 1.0922 1.09148 1.20136 1.03536ZM1.67031 1.98498C1.66857 3.08961 1.66531 4.35946 1.66182 5.72348C1.64832 10.9888 1.63123 17.6574 1.68389 21.6434C1.72928 25.0744 3.29678 27.69 6.15105 29.5311C5.7578 26.3673 5.70055 22.2445 5.72589 18.1438C5.73486 16.6925 5.75415 15.2442 5.77286 13.84C5.81057 11.0089 5.8459 8.35682 5.78942 6.21913C5.77139 5.53937 5.62386 5.07706 5.17949 4.62924L1.67031 1.98498Z" fill="#343D55" stroke="#343D55" stroke-width="0.05" stroke-linecap="round" stroke-linejoin="round"/>
<path fill-rule="evenodd" clip-rule="evenodd" d="M15.5526 12.5711C17.1785 13.6165 18.5863 15.1572 19.2403 16.8904C19.2862 17.0122 19.2577 17.15 19.1674 17.2425C19.0772 17.3349 18.9421 17.3645 18.8227 17.3181C15.9866 16.2169 13.275 16.3949 10.5931 17.7855C10.4927 17.8376 10.3729 17.8327 10.2769 17.7726C10.1809 17.7125 10.1223 17.6058 10.1223 17.4909V11.5274C10.1223 11.3641 10.2393 11.2252 10.3977 11.2007C12.0395 10.9462 13.9295 11.5276 15.5526 12.5711ZM10.7703 11.8207C12.1508 11.6973 13.763 12.2019 15.2071 13.1304C16.5192 13.9741 17.6564 15.1449 18.3299 16.4449C15.7419 15.6228 13.2324 15.8129 10.7703 16.9641V11.8207Z" fill="#343D55" stroke="#343D55" stroke-width="0.05" stroke-linecap="round" stroke-linejoin="round"/>
</svg>
